# This file uses centimeters as units for non-parametric coordinates.

g default
v 0.173205 0.100000 0.000000
v 0.100000 0.173205 0.000000
v 0.000000 0.200000 0.000000
v -0.100000 0.173205 0.000000
v -0.173205 0.100000 0.000000
v -0.200000 0.000000 0.000000
v -0.173205 -0.100000 0.000000
v -0.100000 -0.173205 0.000000
v 0.000000 -0.200000 0.000000
v 0.100000 -0.173205 0.000000
v 0.173205 -0.100000 0.000000
v 0.200000 0.000000 0.000000
v 0.173205 0.100000 5.000000
v 0.100000 0.173205 5.000000
v 0.000000 0.200000 5.000000
v -0.100000 0.173205 5.000000
v -0.173205 0.100000 5.000000
v -0.200000 0.000000 5.000000
v -0.173205 -0.100000 5.000000
v -0.100000 -0.173205 5.000000
v 0.000000 -0.200000 5.000000
v 0.100000 -0.173205 5.000000
v 0.173205 -0.100000 5.000000
v 0.200000 0.000000 5.000000
v 0.000000 0.000000 0.000000
v 0.000000 0.000000 5.000000
vt 0.635316 0.078125
vt 0.578125 0.020934
vt 0.500000 0.000000
vt 0.421875 0.020934
vt 0.364684 0.078125
vt 0.343750 0.156250
vt 0.364684 0.234375
vt 0.421875 0.291566
vt 0.500000 0.312500
vt 0.578125 0.291566
vt 0.635316 0.234375
vt 0.656250 0.156250
vt 0.375000 0.312500
vt 0.395833 0.312500
vt 0.416667 0.312500
vt 0.437500 0.312500
vt 0.458333 0.312500
vt 0.479167 0.312500
vt 0.500000 0.312500
vt 0.520833 0.312500
vt 0.541667 0.312500
vt 0.562500 0.312500
vt 0.583333 0.312500
vt 0.604167 0.312500
vt 0.625000 0.312500
vt 0.375000 0.688440
vt 0.395833 0.688440
vt 0.416667 0.688440
vt 0.437500 0.688440
vt 0.458333 0.688440
vt 0.479167 0.688440
vt 0.500000 0.688440
vt 0.520833 0.688440
vt 0.541667 0.688440
vt 0.562500 0.688440
vt 0.583333 0.688440
vt 0.604167 0.688440
vt 0.625000 0.688440
vt 0.635316 0.765625
vt 0.578125 0.708434
vt 0.500000 0.687500
vt 0.421875 0.708434
vt 0.364684 0.765625
vt 0.343750 0.843750
vt 0.364684 0.921875
vt 0.421875 0.979066
vt 0.500000 1.000000
vt 0.578125 0.979066
vt 0.635316 0.921875
vt 0.656250 0.843750
vt 0.500000 0.150000
vt 0.500000 0.837500
vn 0.707107 0.707107 -0.000000
vn 0.707107 0.707107 -0.000000
vn 0.707107 0.707107 -0.000000
vn 0.707107 0.707107 -0.000000
vn 0.258819 0.965926 -0.000000
vn 0.258819 0.965926 -0.000000
vn 0.258819 0.965926 -0.000000
vn 0.258819 0.965926 -0.000000
vn -0.258819 0.965926 -0.000000
vn -0.258819 0.965926 -0.000000
vn -0.258819 0.965926 -0.000000
vn -0.258819 0.965926 -0.000000
vn -0.707107 0.707107 -0.000000
vn -0.707107 0.707107 -0.000000
vn -0.707107 0.707107 -0.000000
vn -0.707107 0.707107 -0.000000
vn -0.965926 0.258819 -0.000000
vn -0.965926 0.258819 -0.000000
vn -0.965926 0.258819 -0.000000
vn -0.965926 0.258819 -0.000000
vn -0.965926 -0.258819 0.000000
vn -0.965926 -0.258819 0.000000
vn -0.965926 -0.258819 0.000000
vn -0.965926 -0.258819 0.000000
vn -0.707107 -0.707107 0.000000
vn -0.707107 -0.707107 0.000000
vn -0.707107 -0.707107 0.000000
vn -0.707107 -0.707107 0.000000
vn -0.258819 -0.965926 0.000000
vn -0.258819 -0.965926 0.000000
vn -0.258819 -0.965926 0.000000
vn -0.258819 -0.965926 0.000000
vn 0.258819 -0.965926 0.000000
vn 0.258819 -0.965926 0.000000
vn 0.258819 -0.965926 0.000000
vn 0.258819 -0.965926 0.000000
vn 0.707107 -0.707107 0.000000
vn 0.707107 -0.707107 0.000000
vn 0.707107 -0.707107 0.000000
vn 0.707107 -0.707107 0.000000
vn 0.965926 -0.258819 0.000000
vn 0.965926 -0.258819 0.000000
vn 0.965926 -0.258819 0.000000
vn 0.965926 -0.258819 0.000000
vn 0.965926 0.258819 -0.000000
vn 0.965926 0.258819 -0.000000
vn 0.965926 0.258819 -0.000000
vn 0.965926 0.258819 -0.000000
vn 0.000000 -0.000000 -1.000000
vn 0.000000 -0.000000 -1.000000
vn 0.000000 -0.000000 -1.000000
vn 0.000000 -0.000000 -1.000000
vn 0.000000 -0.000000 -1.000000
vn 0.000000 -0.000000 -1.000000
vn 0.000000 -0.000000 -1.000000
vn 0.000000 -0.000000 -1.000000
vn 0.000000 -0.000000 -1.000000
vn 0.000000 -0.000000 -1.000000
vn 0.000000 -0.000000 -1.000000
vn 0.000000 -0.000000 -1.000000
vn 0.000000 -0.000000 -1.000000
vn 0.000000 0.000000 1.000000
vn 0.000000 0.000000 1.000000
vn 0.000000 0.000000 1.000000
vn 0.000000 0.000000 1.000000
vn 0.000000 0.000000 1.000000
vn 0.000000 0.000000 1.000000
vn 0.000000 0.000000 1.000000
vn 0.000000 0.000000 1.000000
vn 0.000000 0.000000 1.000000
vn 0.000000 0.000000 1.000000
vn 0.000000 0.000000 1.000000
vn 0.000000 0.000000 1.000000
vn 0.000000 0.000000 1.000000
g pCylinder1 group1
f 1/13/1 2/14/2 14/27/3 13/26/4
f 2/14/5 3/15/6 15/28/7 14/27/8
f 3/15/9 4/16/10 16/29/11 15/28/12
f 4/16/13 5/17/14 17/30/15 16/29/16
f 5/17/17 6/18/18 18/31/19 17/30/20
f 6/18/21 7/19/22 19/32/23 18/31/24
f 7/19/25 8/20/26 20/33/27 19/32/28
f 8/20/29 9/21/30 21/34/31 20/33/32
f 9/21/33 10/22/34 22/35/35 21/34/36
f 10/22/37 11/23/38 23/36/39 22/35/40
f 11/23/41 12/24/42 24/37/43 23/36/44
f 12/24/45 1/25/46 13/38/47 24/37/48
f 2/2/49 1/1/50 25/51/51
f 3/3/52 2/2/49 25/51/51
f 4/4/53 3/3/52 25/51/51
f 5/5/54 4/4/53 25/51/51
f 6/6/55 5/5/54 25/51/51
f 7/7/56 6/6/55 25/51/51
f 8/8/57 7/7/56 25/51/51
f 9/9/58 8/8/57 25/51/51
f 10/10/59 9/9/58 25/51/51
f 11/11/60 10/10/59 25/51/51
f 12/12/61 11/11/60 25/51/51
f 1/1/50 12/12/61 25/51/51
f 13/49/62 14/48/63 26/52/64
f 14/48/63 15/47/65 26/52/64
f 15/47/65 16/46/66 26/52/64
f 16/46/66 17/45/67 26/52/64
f 17/45/67 18/44/68 26/52/64
f 18/44/68 19/43/69 26/52/64
f 19/43/69 20/42/70 26/52/64
f 20/42/70 21/41/71 26/52/64
f 21/41/71 22/40/72 26/52/64
f 22/40/72 23/39/73 26/52/64
f 23/39/73 24/50/74 26/52/64
f 24/50/74 13/49/62 26/52/64
g default
v 0.433013 0.250000 5.000000
v 0.250000 0.433013 5.000000
v 0.000000 0.500000 5.000000
v -0.250000 0.433013 5.000000
v -0.433013 0.250000 5.000000
v -0.500000 0.000000 5.000000
v -0.433013 -0.250000 5.000000
v -0.250000 -0.433013 5.000000
v 0.000000 -0.500000 5.000000
v 0.250000 -0.433013 5.000000
v 0.433013 -0.250000 5.000000
v 0.500000 0.000000 5.000000
v 0.000000 0.000000 6.500000
vt 0.716506 0.125000
vt 0.625000 0.033494
vt 0.500000 0.000000
vt 0.375000 0.033494
vt 0.283494 0.125000
vt 0.250000 0.250000
vt 0.283494 0.375000
vt 0.375000 0.466506
vt 0.500000 0.500000
vt 0.625000 0.466506
vt 0.716506 0.375000
vt 0.750000 0.250000
vt 0.250000 0.500000
vt 0.291667 0.500000
vt 0.333333 0.500000
vt 0.375000 0.500000
vt 0.416667 0.500000
vt 0.458333 0.500000
vt 0.500000 0.500000
vt 0.541667 0.500000
vt 0.583333 0.500000
vt 0.625000 0.500000
vt 0.666667 0.500000
vt 0.708333 0.500000
vt 0.750000 0.500000
vt 0.500000 1.000000
vn 0.000000 -0.000000 -1.000000
vn 0.000000 -0.000000 -1.000000
vn 0.000000 -0.000000 -1.000000
vn 0.000000 -0.000000 -1.000000
vn 0.000000 -0.000000 -1.000000
vn 0.000000 -0.000000 -1.000000
vn 0.000000 -0.000000 -1.000000
vn 0.000000 -0.000000 -1.000000
vn 0.000000 -0.000000 -1.000000
vn 0.000000 -0.000000 -1.000000
vn 0.000000 -0.000000 -1.000000
vn 0.000000 -0.000000 -1.000000
vn 0.673079 0.673079 0.306481
vn 0.673079 0.673079 0.306481
vn 0.673079 0.673079 0.306481
vn 0.246364 0.919442 0.306481
vn 0.246364 0.919442 0.306481
vn 0.246364 0.919442 0.306481
vn -0.246364 0.919442 0.306481
vn -0.246364 0.919442 0.306481
vn -0.246364 0.919442 0.306481
vn -0.673079 0.673079 0.306481
vn -0.673079 0.673079 0.306481
vn -0.673079 0.673079 0.306481
vn -0.919442 0.246364 0.306481
vn -0.919442 0.246364 0.306481
vn -0.919442 0.246364 0.306481
vn -0.919442 -0.246364 0.306481
vn -0.919442 -0.246364 0.306481
vn -0.919442 -0.246364 0.306481
vn -0.673079 -0.673079 0.306481
vn -0.673079 -0.673079 0.306481
vn -0.673079 -0.673079 0.306481
vn -0.246364 -0.919442 0.306481
vn -0.246364 -0.919442 0.306481
vn -0.246364 -0.919442 0.306481
vn 0.246364 -0.919442 0.306481
vn 0.246364 -0.919442 0.306481
vn 0.246364 -0.919442 0.306481
vn 0.673079 -0.673079 0.306481
vn 0.673079 -0.673079 0.306481
vn 0.673079 -0.673079 0.306481
vn 0.919442 -0.246364 0.306481
vn 0.919442 -0.246364 0.306481
vn 0.919442 -0.246364 0.306481
vn 0.919442 0.246364 0.306481
vn 0.919442 0.246364 0.306481
vn 0.919442 0.246364 0.306481
g group1 pCone1
f 27/53/75 38/64/76 37/63/77 36/62/78 35/61/79 34/60/80 33/59/81 32/58/82 31/57/83 30/56/84 29/55/85 28/54/86
f 27/65/87 28/66/88 39/78/89
f 28/66/90 29/67/91 39/78/92
f 29/67/93 30/68/94 39/78/95
f 30/68/96 31/69/97 39/78/98
f 31/69/99 32/70/100 39/78/101
f 32/70/102 33/71/103 39/78/104
f 33/71/105 34/72/106 39/78/107
f 34/72/108 35/73/109 39/78/110
f 35/73/111 36/74/112 39/78/113
f 36/74/114 37/75/115 39/78/116
f 37/75/117 38/76/118 39/78/119
f 38/76/120 27/77/121 39/78/122
